<?xml version="1.0" encoding="UTF-8" standalone="no"?>
<svg viewBox="0 0 500 500" style="background: #010e1c" version="1.1" xmlns="http://www.w3.org/2000/svg" xmlns:xlink="http://www.w3.org/1999/xlink" preserveAspectRatio="xMidYMid">

<polygon points="423.20508075688775,350 250,450 76.7949192431123,350.00000000000006 76.79491924311225,150.00000000000006 249.99999999999997,50 423.20508075688775,150.00000000000006" fill="#606060" />

<polygon points="401.55444566227675,337.5 250,425 98.44555433772325,337.50000000000006 98.4455543377232,162.50000000000006 249.99999999999997,75 401.5544456622768,162.50000000000006" fill="#010e1c" />

<polygon points="379.9038105676658,325 250,400 120.09618943233423,325.00000000000006 120.09618943233417,175.00000000000006 249.99999999999997,100 379.9038105676658,175.00000000000006" fill="#606060"/>


<polygon points="358.25317547305485,312.5 250,375 141.7468245269452,312.50000000000006 141.74682452694515,187.50000000000003 249.99999999999997,125 358.25317547305485,187.50000000000006" fill="#010e1c"/>


<polygon points="336.6025403784439,300 250,350 163.39745962155615,300.00000000000006 163.39745962155612,200.00000000000003 249.99999999999997,150 336.6025403784439,200.00000000000003" fill="#606060"/>

<polygon points="314.9519052838329,287.5 250,325 185.0480947161671,287.5 185.0480947161671,212.50000000000003 250,175 314.9519052838329,212.50000000000003" fill="#010e1c"/>

<circle cx="250" cy="250" r="50" fill="#606060" />

<rect x="275" y="240" width="105" height="20" fill="#010e1c" />




</svg>