<?xml version="1.0" encoding="UTF-8" standalone="no"?>
<svg viewBox="0 0 200 720" version="1.1" xmlns="http://www.w3.org/2000/svg" xmlns:xlink="http://www.w3.org/1999/xlink" preserveAspectRatio="xMidYMid">
    <g>
        <circle cx="50" cy="175" r="20" fill="none" stroke="orange" stroke-width="10" />
        <circle cx="125" cy="25" r="20" fill="none" stroke="orange" stroke-width="10" />
        <circle cx="175" cy="262" r="20" fill="none" stroke="orange" stroke-width="10" />
    </g>
    <g id="vert line">
        <line x1="50" x2="50" y1="200" y2="350" fill="none" stroke="orange" stroke-width="10" stroke-linecap="round"/>
        <line x1="125" x2="125" y1="50" y2="175" fill="none" stroke="orange" stroke-width="10" stroke-linecap="round"/>
        <line x1="175" x2="175" y1="287" y2="437" fill="none" stroke="orange" stroke-width="10" stroke-linecap="round"/>
        <line x1="100" x2="100" y1="200" y2="625" fill="none" stroke="orange" stroke-width="10" stroke-linecap="round"/>
    </g>
    <g id="lines">
        <line x1="125" x2="100" y1="175" y2="200" fill="none" stroke="orange" stroke-width="10" stroke-linecap="round"/>
        <line x1="50" x2="100" y1="350" y2="400" fill="none" stroke="orange" stroke-width="10" stroke-linecap="round"/>
        <line x1="175" x2="100" y1="437" y2="512" fill="none" stroke="orange" stroke-width="10" stroke-linecap="round"/>
    </g>
    <g id="bottom_blk">
        <rect x="75" y="625" width="50" height="75" fill="none" stroke="orange" stroke-width="10" />
    </g><!--
    <g id="help_line">
        <line x1="0" x2="200" y1="350" y2="350" fill="none" stroke="#000000" stroke-width=".1" />
        <line x1="0" x2="200" y1="175" y2="175" fill="none" stroke="#000000" stroke-width=".1" />
        <line x1="0" x2="200" y1="525" y2="525" fill="none" stroke="#000000" stroke-width=".1" />
        <line x1="100" x2="100" y1="0" y2="700" fill="none" stroke="#000000" stroke-width=".1" />
        <line x1="0" x2="200" y1="262" y2="262" fill="none" stroke="#000000" stroke-width=".1" />
        <line x1="0" x2="200" y1="437" y2="437" fill="none" stroke="#000000" stroke-width=".1" />

        <line x1="50" x2="50" y1="0" y2="700" fill="none" stroke="#000000" stroke-width=".1" />
        <line x1="125" x2="125" y1="0" y2="700" fill="none" stroke="#000000" stroke-width=".1" />
        <line x1="175" x2="175" y1="0" y2="700" fill="none" stroke="#000000" stroke-width=".1" />
        
    </g>-->
</svg>
