
<svg version="1.2" xmlns="http://www.w3.org/2000/svg" xmlns:xlink="http://www.w3.org/1999/xlink" class="graph"  viewBox="0 0 500 150" aria-labelledby="title" role="img">
<g id="grid">
<g id="grid_hori" stroke="#808080" stroke-width=".1">
  <line x1="0" y1="20" x2="500" y2="20" />
  <line x1="0" y1="40" x2="500" y2="40" />
  <line x1="0" y1="60" x2="500" y2="60" />
  <line x1="0" y1="80" x2="500" y2="80" />
  <line x1="0" y1="100" x2="500" y2="100" />
  <line x1="0" y1="120" x2="500" y2="120" />
  <line x1="0" y1="140" x2="500" y2="140" />
</g>
<g id="grid_verti" stroke="#808080" stroke-width=".1">
  <line x1="40" y1="0" x2="40" y2="150" />
  <line x1="80" y1="0" x2="80" y2="150" />
  <line x1="120" y1="0" x2="120" y2="150" />
  <line x1="160" y1="0" x2="160" y2="150" />
  <line x1="200" y1="0" x2="200" y2="150" />
  <line x1="240" y1="0" x2="240" y2="150" />
  <line x1="280" y1="0" x2="280" y2="150" />
  <line x1="320" y1="0" x2="320" y2="150" />
  <line x1="360" y1="0" x2="360" y2="150" />
  <line x1="400" y1="0" x2="400" y2="150" />
  <line x1="440" y1="0" x2="440" y2="150" />
  <line x1="480" y1="0" x2="480" y2="150" />
</g>
</g>
  <polyline fill="none" stroke="#0074d9" stroke-width="2" points="5,120 20,60 40,80 60,20 80,80 100,80 120,60 140,100 160,90 180,80 200,110 220,10 240,70 260,100 280,100 300,40 320,0 340,100 360,100 380,120 400,60 420,70 440,80"/>  
  <circle fill="red" cx="100" cy="80" r="4"/>
  <circle fill="red" cx="180" cy="80" r="4"/>
  <circle fill="red" cx="220" cy="10" r="4"/>
  <circle fill="red" cx="300" cy="40" r="4"/>
  <circle fill="green" cx="120" cy="60" r="4"/>
  <circle fill="green" cx="260" cy="100" r="4"/>
  <circle fill="green" cx="400" cy="60" r="4"/>
  <circle fill="yellow" cx="60" cy="20" r="4"/>
  <circle fill="yellow" cx="340" cy="100" r="4"/>
</svg>