
<?xml version="1.0" encoding="UTF-8"?>
<svg xmlns="http://www.w3.org/2000/svg" xmlns:xlink="http://www.w3.org/1999/xlink" version="1.1" id="Ebene_2" x="0px" y="0px" viewBox="0 0 150 150.7" xml:space="preserve">
<g>
	<g>
		<defs>
			<path id="SVGID_1_" d="M17.3,143.6h93.1c5.9,0,11.4-3.2,14.3-8.4l23.1-41.1c2.8-5,2.8-11.1,0-16.1l-39.2-70     C104.6,0.8,95.6-2.1,88,1.6L8.9,40c-5.5,2.7-9,8.3-8.9,14.4l0.9,72.9C1,136.3,8.3,143.6,17.3,143.6z"></path>
		</defs>
		<use xlink:href="#SVGID_1_" overflow="visible" fill="#00AA6E"></use>
		<clipPath id="SVGID_00000044857768980055159540000007250462626537868716_">
			<use xlink:href="#SVGID_1_" overflow="visible"></use>
		</clipPath>
		<path clip-path="url(#SVGID_00000044857768980055159540000007250462626537868716_)" fill="#2D50A0" d="M96.9,93.6h26.8    c11.6,0,21-9.5,21-21c0-8.7-5.3-16.1-12.8-19.4c0.6-1.7,0.9-3.6,0.9-5.6c-0.3-8.2-7.2-14.7-15.5-14.4c-1.7,0.1-3.3,0.4-4.8,1    c-2.4-8-9.9-13.8-18.7-13.5c-1.8,0.1-3.6,0.4-5.3,1c-4.3-8.1-13-13.5-22.8-13.2c-9,0.3-16.8,5.4-20.9,12.8    c-1.7-0.4-3.5-0.6-5.3-0.6C29.1,21.1,21,29.8,21.4,40.2c0,1.4,0.3,2.7,0.6,4C11.9,47.9,5,57.8,5.4,69    c0.5,14.1,12.3,25.1,26.4,24.6h16.9L96.9,93.6z"></path>
		<path clip-path="url(#SVGID_00000044857768980055159540000007250462626537868716_)" fill="#00AA6E" d="M96.9,93.6v1h26.8    c12.1,0,22-9.9,22-22c0-9.1-5.5-16.9-13.4-20.3l-0.4,0.9l0.9,0.3c0.6-1.7,0.9-3.5,0.9-5.4c0-0.2,0-0.4,0-0.6v0    c-0.3-8.6-7.4-15.4-15.9-15.4c-0.2,0-0.4,0-0.6,0l0,0c-1.8,0.1-3.6,0.4-5.2,1.1l0.4,0.9l1-0.3c-2.4-8.3-10-14.2-19-14.2    c-0.2,0-0.5,0-0.7,0l0,0c-1.9,0.1-3.8,0.4-5.6,1l0.3,0.9l0.9-0.5C85,13,76.4,7.5,66.6,7.5c-0.3,0-0.6,0-0.9,0    c-9.4,0.3-17.4,5.7-21.7,13.3l0.9,0.5l0.2-1c-1.6-0.4-3.2-0.6-4.9-0.6c-0.2,0-0.5,0-0.7,0l0,0c-10.7,0.4-19.1,9.2-19.1,19.8    c0,0.2,0,0.5,0,0.7c0.1,1.5,0.3,2.9,0.6,4.3l1-0.2l-0.3-0.9C11.5,47,4.3,56.8,4.3,68.1c0,0.3,0,0.6,0,1v0    c0.5,14.3,12.3,25.6,26.5,25.6c0.3,0,0.6,0,1,0l0-1v1h16.9l48.2-0.1L96.9,93.6l0-1l-48.2,0.1H31.8l0,0c-0.3,0-0.6,0-0.9,0    c-13.2,0-24-10.4-24.5-23.7v0c0-0.3,0-0.6,0-0.9c0-10.5,6.6-19.5,16-23c0.5-0.2,0.7-0.7,0.6-1.2c-0.3-1.2-0.5-2.5-0.6-3.8    c0-0.2,0-0.4,0-0.6c0-9.5,7.6-17.4,17.2-17.8l0,0c0.2,0,0.4,0,0.6,0c1.5,0,3,0.2,4.4,0.6c0.4,0.1,0.9-0.1,1.1-0.5    c3.9-7.1,11.3-12,20-12.3c0.3,0,0.6,0,0.9,0c9.1,0,17,5.1,21.1,12.7c0.2,0.4,0.7,0.6,1.2,0.5c1.6-0.5,3.3-0.8,5-0.9l0,0    c0.2,0,0.4,0,0.6,0c8,0,14.9,5.4,17,12.8c0.1,0.3,0.3,0.5,0.5,0.6c0.2,0.1,0.5,0.1,0.8,0c1.4-0.5,2.9-0.9,4.5-0.9l0,0    c0.2,0,0.3,0,0.5,0c7.5,0,13.7,5.9,13.9,13.5v0c0,0.2,0,0.3,0,0.5c0,1.7-0.3,3.2-0.8,4.7c-0.2,0.5,0.1,1,0.5,1.3    c7.2,3.1,12.2,10.2,12.2,18.4c0,5.5-2.3,10.5-5.9,14.2c-3.6,3.6-8.6,5.9-14.2,5.9H96.9V93.6z"></path>
	</g>
	<path fill="#2D50A0" d="M117.3,33.2c-1.7,0.1-3.3,0.4-4.8,1c-2.4-8-9.9-13.8-18.7-13.5c-1.8,0.1-3.6,0.4-5.3,1   c-4.3-8.1-13-13.5-22.8-13.2c-9,0.3-16.8,5.4-20.9,12.8c-1.7-0.4-3.5-0.6-5.3-0.6C29.1,21.1,21,29.8,21.4,40.2c0,1.4,0.3,2.7,0.6,4   C11.9,47.9,5,57.8,5.4,69c0.5,14.1,12.3,25.1,26.4,24.6h16.9l48.2-0.1h26.8"></path>
	<path fill="#00AA6E" d="M117.2,32.2c-1.8,0.1-3.6,0.4-5.2,1.1l0.4,0.9l1-0.3c-2.4-8.3-10-14.2-19-14.2c-0.2,0-0.5,0-0.7,0l0,0   c-1.9,0.1-3.8,0.4-5.6,1l0.3,0.9l0.9-0.5C85,13,76.4,7.5,66.6,7.5c-0.3,0-0.6,0-0.9,0c-9.4,0.3-17.4,5.7-21.7,13.3l0.9,0.5l0.2-1   c-1.6-0.4-3.2-0.6-4.9-0.6c-0.2,0-0.5,0-0.7,0l0,0c-10.7,0.4-19.1,9.2-19.1,19.8c0,0.2,0,0.5,0,0.7c0.1,1.5,0.3,2.9,0.6,4.3l1-0.2   l-0.3-0.9C11.5,47,4.3,56.8,4.3,68.1c0,0.3,0,0.6,0,1v0c0.5,14.3,12.3,25.6,26.5,25.6c0.3,0,0.6,0,1,0l0-1v1h16.9l48.2-0.1h26.8   c0.6,0,1-0.4,1-1c0-0.6-0.4-1-1-1l-26.8,0l-48.2,0.1H31.8l0,0c-0.3,0-0.6,0-0.9,0c-13.2,0-24-10.4-24.5-23.7v0c0-0.3,0-0.6,0-0.9   c0-10.5,6.6-19.5,16-23c0.5-0.2,0.7-0.7,0.6-1.2c-0.3-1.2-0.5-2.5-0.6-3.8c0-0.2,0-0.4,0-0.6c0-9.5,7.6-17.4,17.2-17.8l0,0   c0.2,0,0.4,0,0.6,0c1.5,0,3,0.2,4.4,0.6c0.4,0.1,0.9-0.1,1.1-0.5c3.9-7.1,11.3-12,20-12.3c0.3,0,0.6,0,0.9,0   c9.1,0,17,5.1,21.1,12.7c0.2,0.4,0.7,0.6,1.2,0.5c1.6-0.5,3.3-0.8,5-0.9l0,0c0.2,0,0.4,0,0.6,0c8,0,14.9,5.4,17,12.8   c0.1,0.3,0.3,0.5,0.5,0.6c0.2,0.1,0.5,0.1,0.8,0c1.4-0.5,2.9-0.9,4.5-0.9c0.6,0,1-0.5,1-1C118.3,32.6,117.8,32.2,117.2,32.2   L117.2,32.2z"></path>
	<path fill="#FFFFFF" d="M89,127.9v-26.5l18.2-18.2l3.7,3.7c0.7,0.7,1.7,1.1,2.5,1.1c0.9,0,1.8-0.3,2.4-0.9c0.7-0.6,1.1-1.5,1.2-2.5   l1.3-19.7l0-0.2c0-2-1.6-3.6-3.6-3.6l-0.3,0l0.1,1l-0.1-1l-19.7,1.3c-1,0.1-1.9,0.5-2.5,1.2c-0.6,0.7-0.9,1.5-0.9,2.4   c0,0.9,0.3,1.8,1.1,2.5l0,0L97,73l0.7-0.7L97,71.6l-0.3,0.3l0,0L79,89.6c-0.2,0.2-0.3,0.5-0.3,0.8c0,0.3,0.1,0.5,0.4,0.7l0,0   c0.3,0.2,0.7,0.3,1.1,0.1c0.4-0.2,0.6-0.5,0.6-0.9V53.8v0l0-0.4l-1,0l0,1l6.3,0h0c1.1,0,2-0.4,2.6-1.1c0.6-0.7,1-1.6,1-2.5   c0-0.8-0.3-1.7-0.9-2.4l-13-14.9c-0.7-0.8-1.7-1.2-2.7-1.2c-1,0-2,0.4-2.7,1.2l-13,14.9c-0.6,0.7-0.9,1.6-0.9,2.4   c0,0.9,0.4,1.8,1,2.5C58,54,59,54.4,60,54.4h5.2l0,35.9c0,0.3,0.1,0.5,0.3,0.7c0.2,0.2,0.4,0.3,0.7,0.3c0.3,0,0.5-0.1,0.7-0.3   c0.2-0.2,0.3-0.4,0.3-0.7v0c0-0.3-0.1-0.5-0.3-0.7L49.3,71.9l0,0L49,71.6l-0.7,0.7L49,73l4.4-4.5l0,0c0.7-0.7,1.1-1.7,1.1-2.5   c0-0.9-0.3-1.8-0.9-2.4c-0.6-0.7-1.5-1.1-2.5-1.2L31.4,61l-0.2,0c-2,0-3.6,1.6-3.6,3.6l0,0.3l1-0.1l-1,0.1l1.3,19.7   c0.1,1,0.5,1.9,1.2,2.5c0.7,0.6,1.5,0.9,2.4,0.9c0.9,0,1.8-0.3,2.5-1.1l3.7-3.7l18.2,18.2v9.8c0,0.6,0.4,1,1,1c0.6,0,1-0.4,1-1   l0-10.2c0-0.3-0.1-0.5-0.3-0.7L39.5,81.1c-0.4-0.4-1-0.4-1.4,0l-4.4,4.4c-0.3,0.3-0.7,0.5-1.1,0.5c-0.4,0-0.8-0.2-1.1-0.4   c-0.3-0.3-0.5-0.6-0.5-1.1l-1.3-19.7l0,0l0-0.1c0-0.4,0.2-0.8,0.5-1.1c0.3-0.3,0.7-0.5,1.1-0.5l0.1,0L51,64.3   c0.5,0,0.8,0.2,1.1,0.5c0.3,0.3,0.4,0.7,0.4,1.1c0,0.4-0.1,0.8-0.5,1.1l0,0l-4.4,4.5c-0.2,0.2-0.3,0.4-0.3,0.7   c0,0.3,0.1,0.5,0.3,0.7l0.3,0.3l0,0L65.6,91l0.7-0.7h-1v0c0,0.3,0.1,0.5,0.3,0.7c0.2,0.2,0.4,0.3,0.7,0.3c0.3,0,0.5-0.1,0.7-0.3   c0.2-0.2,0.3-0.4,0.3-0.7V53.4c0-0.3-0.1-0.5-0.3-0.7c-0.2-0.2-0.4-0.3-0.7-0.3H60c-0.5,0-0.9-0.2-1.2-0.5   c-0.3-0.3-0.5-0.7-0.5-1.1c0-0.4,0.1-0.7,0.4-1.1l13-14.9c0.3-0.4,0.8-0.6,1.2-0.6c0.5,0,0.9,0.2,1.2,0.6l13,14.9   c0.3,0.3,0.4,0.7,0.4,1.1c0,0.4-0.2,0.8-0.5,1.1c-0.3,0.3-0.7,0.5-1.2,0.5h0l-6.3,0c-0.3,0-0.5,0.1-0.7,0.3   c-0.2,0.2-0.3,0.4-0.3,0.7l0,0.4v0v36.5h1l0.6-0.8l0,0l-0.6,0.8l0.7,0.7l17.7-17.7l0,0l0.3-0.3c0.2-0.2,0.3-0.4,0.3-0.7   c0-0.3-0.1-0.5-0.3-0.7L94,67.1l0,0c-0.3-0.3-0.5-0.7-0.5-1.1c0-0.4,0.2-0.8,0.4-1.1c0.3-0.3,0.6-0.5,1.1-0.5l19.7-1.3l0,0l0.1,0   c0.4,0,0.8,0.2,1.1,0.5c0.3,0.3,0.5,0.7,0.5,1.1l0,0.1l-1.3,19.7c0,0.5-0.2,0.8-0.5,1.1c-0.3,0.3-0.7,0.4-1.1,0.4   c-0.4,0-0.8-0.1-1.1-0.5l-4.4-4.4c-0.4-0.4-1-0.4-1.4,0l-19.2,19.2c-0.2,0.2-0.3,0.4-0.3,0.7v26.9c0,0.6,0.4,1,1,1   C88.6,128.9,89,128.4,89,127.9L89,127.9z"></path>
	<path fill="#2D50A0" d="M89.4,89.6L79.2,99.8c-0.2,0.2-0.3,0.4-0.3,0.7v9.9c0,0.6,0.4,1,1,1c0.6,0,1-0.4,1-1l0-9.5l10-10   c0.4-0.4,0.4-1,0-1.4C90.4,89.2,89.8,89.2,89.4,89.6L89.4,89.6z"></path>
	<path fill="#2D50A0" d="M56.1,91l10,10v18.4l-7.8,7.8c-0.4,0.4-0.4,1,0,1.4c0.4,0.4,1,0.4,1.4,0l8.1-8.1c0.2-0.2,0.3-0.4,0.3-0.7   v-19.3c0-0.3-0.1-0.5-0.3-0.7L57.5,89.6c-0.4-0.4-1-0.4-1.4,0C55.7,90,55.7,90.6,56.1,91L56.1,91z"></path>
	<path fill="#FFFFFF" d="M72,75v67.9c0,0.6,0.4,1,1,1c0.6,0,1-0.4,1-1V75c0-0.6-0.4-1-1-1C72.4,74,72,74.5,72,75"></path>
	<path fill="#FFFFFF" d="M61.3,115.1h-1c0,1.3-1.1,2.4-2.4,2.4c-1.3,0-2.4-1.1-2.4-2.4c0-1.3,1.1-2.4,2.4-2.4c1.3,0,2.4,1.1,2.4,2.4   H61.3h1c0-2.4-2-4.4-4.4-4.4c-2.4,0-4.4,2-4.4,4.4c0,2.4,2,4.4,4.4,4.4c2.4,0,4.4-2,4.4-4.4H61.3z"></path>
	<path fill="#2D50A0" d="M58.5,130h-1c0,1.3-1.1,2.4-2.4,2.4c-1.3,0-2.4-1.1-2.4-2.4c0-1.3,1.1-2.4,2.4-2.4c1.3,0,2.4,1.1,2.4,2.4   H58.5h1c0-2.4-2-4.4-4.4-4.4c-2.4,0-4.4,2-4.4,4.4c0,2.4,2,4.4,4.4,4.4c2.4,0,4.4-2,4.4-4.4H58.5z"></path>
	<path fill="#2D50A0" d="M83.3,113.9h-1c0,1.3-1.1,2.4-2.4,2.4c-1.3,0-2.4-1.1-2.4-2.4c0-1.3,1.1-2.4,2.4-2.4c1.3,0,2.4,1.1,2.4,2.4   H83.3h1c0-2.4-2-4.4-4.4-4.4c-2.4,0-4.4,2-4.4,4.4c0,2.4,2,4.4,4.4,4.4c2.4,0,4.4-2,4.4-4.4H83.3z"></path>
	<path fill="#FFFFFF" d="M91.2,131.3h-1c0,1.3-1.1,2.4-2.4,2.4c-1.3,0-2.4-1.1-2.4-2.4c0-1.3,1.1-2.4,2.4-2.4c1.3,0,2.4,1.1,2.4,2.4   H91.2h1c0-2.4-2-4.4-4.4-4.4c-2.4,0-4.4,2-4.4,4.4c0,2.4,2,4.4,4.4,4.4c2.4,0,4.4-2,4.4-4.4H91.2z"></path>
	<path fill="#FFFFFF" d="M76.4,146.3h-1c0,1.3-1.1,2.4-2.4,2.4c-1.3,0-2.4-1.1-2.4-2.4c0-1.3,1.1-2.4,2.4-2.4c1.3,0,2.4,1.1,2.4,2.4   H76.4h1c0-2.4-2-4.4-4.4-4.4c-2.4,0-4.4,2-4.4,4.4c0,2.4,2,4.4,4.4,4.4c2.4,0,4.4-2,4.4-4.4H76.4z"></path>
	<polyline fill="#FFFFFF" points="72,92.6 72,142.7 74,142.7 74,92.6  "></polyline>
	<path fill="#FFFFFF" d="M51,92.6h-2.8l8.8,8.8v9.8c0,0.6,0.4,1,1,1c0.6,0,1-0.4,1-1V101c0-0.3-0.1-0.5-0.3-0.7L51,92.6z"></path>
	<path fill="#FFFFFF" d="M87.3,100.3c-0.2,0.2-0.3,0.4-0.3,0.7v26.9c0,0.6,0.4,1,1,1s1-0.4,1-1v-26.5l8.8-8.8H95L87.3,100.3z"></path>
</g>
</svg>