<?xml version="1.0" encoding="UTF-8" standalone="no"?>
<svg viewBox="0 0 200 150" style="background: #010e1c" version="1.1" xmlns="http://www.w3.org/2000/svg" xmlns:xlink="http://www.w3.org/1999/xlink" preserveAspectRatio="xMidYMid">

    <g id="server1_top">
        <rect x="95" y="25" rx="5" width="60" height="20" fill="#202020"/>
        <rect x="130" y="37" rx="0" width="20" height="4" fill="#ffffff"/>
        <circle cx="100" cy="30" r="1.5" fill="#ffffff" />
        <circle cx="100" cy="30" r="1" fill="#00ff00" />
    </g>
    <g id="server2_middle">
        <rect x="95" y="47" rx="5" width="60" height="20" fill="#202020"/>
        <rect x="130" y="59" rx="0" width="20" height="4" fill="#ffffff"/>
        <circle cx="100" cy="52" r="1.5" fill="#ffffff" />
        <circle cx="100" cy="52" r="1" fill="#00ff00" />
    </g>
    <g id="server3_bottom">
        <rect x="95" y="69" rx="5" width="60" height="20" fill="#202020"/>
        <rect x="130" y="81" rx="0" width="20" height="4" fill="#ffffff"/>
        <circle cx="100" cy="74" r="1.5" fill="#ffffff" />
        <circle cx="100" cy="74" r="1" fill="#ff0000" />
    </g>
    <g id="net" fill="#202020">
        <rect x="115" y="110" width="20" height="10" />
        <rect x="123" y="91" width="4" height="20" />
        <rect x="95" y="113" width="60" height="4" />
    </g>
</svg>