<?xml version="1.0" encoding="UTF-8" standalone="no"?>
<svg viewBox="0 0 250 250" version="1.1" xmlns="http://www.w3.org/2000/svg" xmlns:xlink="http://www.w3.org/1999/xlink" preserveAspectRatio="xMidYMid">

    <g>
        <rect x="95" y="25" rx="5" width="60" height="20" fill="black"/>
        <rect x="130" y="37" rx="0" width="20" height="4" fill="white"/>
        <circle cx="100" cy="30" r="1.5" fill="white" />
        <circle cx="100" cy="30" r="1" fill="limegreen" />
    </g>
    <g>
        <rect x="95" y="47" rx="5" width="60" height="20" fill="black"/>
        <rect x="130" y="59" rx="0" width="20" height="4" fill="white"/>
        <circle cx="100" cy="52" r="1.5" fill="white" />
        <circle cx="100" cy="52" r="1" fill="limegreen" />
    </g>
    <g>
        <rect x="95" y="69" rx="5" width="60" height="20" fill="black"/>
        <rect x="130" y="81" rx="0" width="20" height="4" fill="white"/>
        <circle cx="100" cy="74" r="1.5" fill="white" />
        <circle cx="100" cy="74" r="1" fill="red" />
    </g>
    <g>
        <rect x="115" y="110" width="20" height="10" />
        <rect x="123" y="91" width="4" height="20" />
        <rect x="95" y="113" width="60" height="4" />
    </g>
</svg>