<?xml version="1.0" encoding="UTF-8" standalone="no" ?>
<svg width="512px" height="114px" viewBox="0 0 512 114" version="1.1" xmlns="http://www.w3.org/2000/svg" xmlns:xlink="http://www.w3.org/1999/xlink" preserveAspectRatio="xMidYMid">
    <g>
        <g transform="translate(97.523810, 51.397683)" fill="#ff0000">
            <path d="M15.4390734,54.2252149 C9.19161905,54.2252149 4.2996139,52.795305 0.235243243,48.8818327 L3.84757786,45.2688391 C6.78317632,48.354018 10.7724273,49.5592278 15.3639537,49.5592278 C21.4598507,49.5592278 25.2237426,47.3761441 25.2237426,43.0106358 C25.2237426,39.7745586 23.3411377,37.9683912 19.051408,37.5914749 L12.954852,37.0649781 C5.72952381,36.4627027 1.89117117,33.2266255 1.89117117,27.1300695 C1.89117117,20.3561184 7.61081081,16.2924067 15.5141931,16.2924067 C20.7824556,16.2924067 25.5242214,17.5720772 28.8360772,20.2803398 L25.2982033,23.8175547 C22.6644015,21.7866873 19.277426,20.8826152 15.4390734,20.8826152 C10.0192535,20.8826152 7.15943372,23.2165972 7.15943372,26.9791712 C7.15943372,30.1407876 8.96560103,32.0227336 13.6322471,32.398332 L19.5779048,32.9248288 C26.0513771,33.5277632 30.4913462,36.0106667 30.4913462,42.936175 C30.4913462,50.0857246 24.3947902,54.2252149 15.4390734,54.2252149" fill="#ff0000" stroke="none" stroke-width=".5"></path>
             <path d="M403.00001,53.7969009 L395.368113,53.7969009 L387.593225,30.4722368 L379.818337,53.7969009 L372.185781,53.7969009 L360.77286,16.63374 L370.616834,16.63374 L376.607959,39.602574 L384.170008,16.63374 L390.945277,16.63374 L398.577833,39.602574 L404.570275,16.63374 L414.342425,16.63374 L403.00001,53.7969009" fill="#00ff00" stroke="none" stroke-width=".5"></path>
        </g>
        <g>
            <path d="M81.574713,42.5605766 L56.4814414,5.58785071 L63.8761184,0.569328185 L88.96939,37.5420541 L81.574713,42.5605766" fill="#808080"></path>
            <path d="M72.3171995,52.021704 L38.6668726,22.622888 L44.5459768,15.8930862 L78.1969627,45.2912432 L72.3171995,52.021704" fill="#E9812C"></path>
            <path d="M66.1883552,62.784906 L26.397982,42.4525097 L30.4643295,34.494435 L70.2547027,54.8268314 L66.1883552,62.784906" fill="#8C7843"></path>
            <path d="M63.2771377,73.1751454 L19.8520257,62.642574 L21.9586718,53.9576834 L65.3837838,64.4895959 L63.2771377,73.1751454" fill="#ff0000"></path>
            <path d="M62.5819511,84.0378481 L17.9641493,81.6017297 L18.4511094,72.6776422 L63.0689112,75.1144196 L62.5819511,84.0378481" fill="#f8ed4a"></path>
            <path d="M17.8402677,87.2205508 L62.8277375,87.2205508 L62.8277375,96.1571583 L17.8402677,96.1571583 L17.8402677,87.2205508 Z" fill="#00ff00"></path>
            <path d="M71.8328752,105.058842 L71.8328752,68.0353771 L80.7615753,68.0353771 L80.7681647,113.997426 L0,113.997426 L0.00197683398,67.9964994 L8.9385843,67.9964994 L8.9385843,105.058842 L71.8328752,105.058842" fill="#0000ff"></path>
        </g>
    </g>
</svg>