<?xml version="1.0" encoding="UTF-8"?>
<svg viewBox="0 0 256 240" version="1.1" xmlns="http://www.w3.org/2000/svg" xmlns:xlink="http://www.w3.org/1999/xlink" preserveAspectRatio="xMidYMid">
    <title>web3js</title>
    <g>
		<path d="M189.641005,136.813171 C189.641005,104.392988 218.08545,120.39832 218.08545,120.39832 L218.08545,120.39832 L256,142.290475 L256,164.18263 L218.08545,142.290475 C218.08545,142.290475 217.965922,142.221467 217.753698,142.114458 L217.628908,142.052508 C215.73539,141.126763 208.59828,138.268597 208.59828,147.784843 C208.59828,158.722389 218.08545,164.199693 218.08545,164.199693 L218.08545,164.199693 L237.042725,175.137239 C237.042725,175.137239 256,186.091848 256,218.921549 C256,251.75125 227.555556,235.336399 227.555556,235.336399 L227.555556,235.336399 L189.641005,213.444244 L189.641005,191.55209 L227.572619,213.444244 C227.572619,213.444244 237.059788,218.921549 237.059788,207.96694 C237.059788,197.029394 227.572619,191.55209 227.572619,191.55209 L227.572619,191.55209 L218.08545,186.074785 C217.519405,185.736399 189.641005,168.909152 189.641005,136.813171 Z M161.196561,87.5686196   Z" fill="#BCBEC0" stroke="green" stroke-width="1"></path>

		<path d="M85.3674598,43.7843098 C85.3674598,43.7843098 75.8802906,49.2616143 75.8802906,60.1991602 C75.8802906,71.1537692 75.8802906,114.869826 75.8802906,114.869826 C75.8802906,114.869826 75.8802906,125.824435 66.3931214,120.347131 C56.9059521,114.869826 56.9059521,103.93228 56.9059521,103.93228 C56.9059521,103.93228 56.9059521,60.1991602 56.9059521,49.2616143 C56.9059521,48.5790842 56.9400787,47.9136173 57.0083317,47.2652136 C58.0491902,37.6415384 66.3760581,32.8297007 66.3760581,32.8297007 L47.4187829,21.8921549 C47.4187829,21.8921549 47.4017197,21.8921549 47.3846564,21.9092182 C46.821569,22.23342 37.9316137,27.7107245 37.9316137,38.3070053 C37.9316137,49.2616143 37.9316137,92.9776711 37.9316137,92.9776711 C37.9316137,92.9776711 37.9316137,103.93228 28.4444444,98.4549757 C18.9572752,92.9776711 18.9572752,82.0401253 18.9572752,82.0401253 C18.9572752,82.0401253 18.9572752,38.3070053 18.9572752,27.3694594 C18.9572752,16.4319136 28.4444444,10.9546091 28.4444444,10.9546091 L9.48716923,-9.69933695e-15 C9.48716923,-9.69933695e-15 3.87973478e-14,5.47730454 3.87973478e-14,16.4148504 C3.87973478e-14,27.3694594 3.87973478e-14,71.0855162 3.87973478e-14,71.0855162 C3.87973478e-14,71.0855162 3.87973478e-14,103.93228 28.4444444,120.347131 C37.1637672,125.380791 43.2041592,125.773245 47.4017197,123.913351 C51.5992801,130.619209 57.6396721,137.205626 66.3589949,142.239285 C94.8034393,158.654136 94.8034393,125.824435 94.8034393,125.824435 C94.8034393,125.824435 94.8034393,82.0913151 94.8034393,71.1537692 C94.8034393,60.1991602 104.290609,54.7389189 104.290609,54.7389189 C101.374381,51.0705179 98.781296,48.5792828 96.511354,47.2652136 C94.5761519,46.1449253 90.8615205,44.984624 85.3674598,43.7843098 Z" fill="#808285" stroke="red" stroke-width="1"></path>
	</g>
</svg>
