<?xml version="1.0" encoding="UTF-8" standalone="no"?>
<svg viewBox="0 0 500 229" style="background: none" version="1.1" xmlns="http://www.w3.org/2000/svg" xmlns:xlink="http://www.w3.org/1999/xlink" preserveAspectRatio="xMidYMid">

<path id="das_u" d="M 210,114.5 210,174.5 A 40 40 0 0 0 290,174.5 L290,114.5 260,114.5 260,174.5 A 10 10 0 0 1 240,174.5 L240,114.5 210,114.5" fill="#800000" stroke="none" stroke-width="1"/>

<path id="das_n" d="M 330,214.5 330,154.5 A 40 40 0 0 1 410,154.5 L410,214.5 380,214.5 380,154.5 A 10 10 0 0 0 360,154.5 L360,214.5 330,214.5" fill="#000000" stroke="none" stroke-width="1"/>

<path id="das_dach" d="M250,107.5  485.5,107.5 485.5,87.5 250,14.5 14.5,87.5 14.5,107.5 250,107.5" fill="#DDCBCB" stroke="#933737" stroke-width="5"/>

<g id="das_h">
    <path d="M90,114.5 90,214.5 120,214.5 120,178.5 132,178.5 132,150.5 120,150.5 120,114.5 90,114.5" fill="#000000" stroke="none" stroke-width="1"/>
    <path d="M170,114.5 170,214.5 146,214.5 146,114.5 170,114.5"  fill="#000000" stroke="none" stroke-width="1"/>
</g>
    
</svg>