
<?xml version="1.0" encoding="UTF-8" standalone="no"?>
<svg
   xmlns:dc="http://purl.org/dc/elements/1.1/"
   xmlns:cc="http://creativecommons.org/ns#"
   xmlns:rdf="http://www.w3.org/1999/02/22-rdf-syntax-ns#"
   xmlns:svg="http://www.w3.org/2000/svg"
   xmlns="http://www.w3.org/2000/svg"
   xmlns:sodipodi="http://sodipodi.sourceforge.net/DTD/sodipodi-0.dtd"
   xmlns:inkscape="http://www.inkscape.org/namespaces/inkscape"
   width="200"
   height="91"
   version="1.1"
   id="svg24"
   sodipodi:docname="svg2.svg"
   inkscape:version="1.0.1 (3bc2e813f5, 2020-09-07)">
  <metadata
     id="metadata30">
    <rdf:RDF>
      <cc:Work
         rdf:about="">
        <dc:format>image/svg+xml</dc:format>
        <dc:type
           rdf:resource="http://purl.org/dc/dcmitype/StillImage" />
        <dc:title></dc:title>
      </cc:Work>
    </rdf:RDF>
  </metadata>
  <defs
     id="defs28" />
  <sodipodi:namedview
     pagecolor="#ffffff"
     bordercolor="#666666"
     borderopacity="1"
     objecttolerance="10"
     gridtolerance="10"
     guidetolerance="10"
     inkscape:pageopacity="0"
     inkscape:pageshadow="2"
     inkscape:window-width="1920"
     inkscape:window-height="1027"
     id="namedview26"
     showgrid="true"
     inkscape:zoom="3.5"
     inkscape:cx="220.59351"
     inkscape:cy="83.8943"
     inkscape:window-x="-8"
     inkscape:window-y="142"
     inkscape:window-maximized="1"
     inkscape:current-layer="svg24"
     inkscape:document-rotation="0">
    <inkscape:grid
       type="xygrid"
       id="grid32" />
  </sodipodi:namedview>
  <!-- dach -->
  <polyline
     points="100,39 199,39 199,28 100,1 1,28 1,39 100,39"
     style="fill:#DDCBCB;stroke:#933737;stroke-width:2"
     id="polyline2" />
  <!-- das h am anfang -->
  <polyline
     points="20,41 20,91 35,91 35,72 41,72 41,58 35,58 35,41 20,41"
     fill="#000000"
     id="polyline4" />
  <polyline
     points="45,41 45,91 57,91 57,41 45,41"
     fill="#000000"
     id="polyline6" />
  <!-- das u in der mitte -->
  <circle
     r="20"
     cx="100"
     cy="71"
     fill="#000000"
     id="circle8" />
  <rect
     x="80"
     y="41"
     width="40"
     height="30"
     fill="#000000"
     id="rect10"
     style="fill:#800000" />
  <circle
     r="6"
     cx="100"
     cy="71"
     fill="#ffffff"
     id="circle12" />
  <rect
     x="94"
     y="41"
     width="12"
     height="30"
     fill="#ffffff"
     id="rect14"
     style="fill:none" />
  <!-- das n am ende -->
  <circle
     r="20"
     cx="160"
     cy="61"
     fill="#abcdef"
     id="circle16" />
  <rect
     x="140"
     y="61"
     width="40"
     height="30"
     fill="#000000"
     id="rect18" />
  <circle
     r="6"
     cx="160"
     cy="61"
     fill="#ffffff"
     id="circle20" />
  <rect
     x="154"
     y="61"
     width="12"
     height="30"
     fill="#ffffff"
     id="rect22"
     style="fill:none" />
  <path
     style="fill:#800000;stroke-width:0.285714"
     d="M 95.309747,90.289912 C 87.233517,88.337641 81.090866,81.116838 80.203397,72.532107 l -0.155589,-1.505051 6.911003,0.07648 6.911003,0.07648 0.167913,1 c 0.501348,2.985753 2.841228,4.857143 6.073093,4.857143 2.87698,0 5.46867,-2.139314 5.82686,-4.809766 l 0.15964,-1.190234 h 6.81952 6.81953 l -0.004,1.357143 c -0.007,2.10548 -0.75904,4.840665 -2.06336,7.5 -0.96473,1.966977 -1.68244,2.919885 -3.77606,5.013503 -2.11248,2.112485 -3.0288,2.799836 -5.0135,3.76075 -1.33572,0.6467 -3.2725,1.37991 -4.30397,1.629354 -2.32212,0.56157 -6.925743,0.557598 -9.265509,-0.008 z"
     id="path18" />
</svg>
