<?xml version="1.0" encoding="UTF-8" standalone="no"?>
<svg viewBox="-100 -100 500 500" style="background: #010e1c" version="1.1" xmlns="http://www.w3.org/2000/svg" xmlns:xlink="http://www.w3.org/1999/xlink" preserveAspectRatio="xMidYMid">


<path d="M217.168476,23.5070146 C203.234077,7.62479651 178.045612,0.815753338 145.823355,0.815753338 L52.3030619,0.815753338 C45.7104431,0.815753338 40.1083819,5.6103852 39.0762042,12.1114399 L0.136468302,259.076601 C-0.637664968,263.946149 3.13311322,268.357876 8.06925331,268.357876 L65.804612,268.357876 L80.3050438,176.385849 L79.8555471,179.265958 C80.8877248,172.764903 86.4481659,167.970272 93.0324607,167.970272 L120.46841,167.970272 C174.366398,167.970272 216.569147,146.078116 228.897012,82.7490197 C229.263268,80.8761167 229.579581,79.0531577 229.854273,77.2718188 C228.297683,76.4477414 228.297683,76.4477414 229.854273,77.2718188 C233.525163,53.8646924 229.829301,37.9325302 217.168476,23.5070146" fill="#27346A" ></path>

<path d="M228.897012,82.7490197 C216.569147,146.069792 174.366398,167.970272 120.46841,167.970272 L93.0241367,167.970272 C86.4398419,167.970272 80.8794007,172.764903 79.8555471,179.265958 L61.8174095,293.621258 C61.1431644,297.883153 64.4394738,301.745495 68.7513129,301.745495 L117.421821,301.745495 C123.182038,301.745495 128.084882,297.550192 128.983876,291.864891 L129.458344,289.384335 L138.631407,231.249423 L139.222412,228.036354 C140.121406,222.351053 145.02425,218.15575 150.784467,218.15575 L158.067979,218.15575 C205.215193,218.15575 242.132193,199.002194 252.920115,143.605884 C257.423406,120.456802 255.092683,101.128442 243.181019,87.5519756 C239.568397,83.4399129 235.081754,80.0437153 229.854273,77.2718188 C229.571257,79.0614817 229.263268,80.8761167 228.897012,82.7490197 L228.897012,82.7490197 Z" fill="#2790C3"></path>

</svg>