<?xml version="1.0" encoding="UTF-8" standalone="no"?>
<svg viewBox="0 0 500 500" style="background: #010e1c" version="1.1" xmlns="http://www.w3.org/2000/svg" xmlns:xlink="http://www.w3.org/1999/xlink" preserveAspectRatio="xMidYMid">

<circle cx="250" cy="250" r="248" fill="darkgreen" stroke="none" stroke-width="1
" />

<path d="M150,245 A100,100 0 0 1 245,150" fill="none" stroke="#abcfff" stroke-width="10" stroke-linecap="none" />
<path d="M255,150 A100,100 0 0 1 350,245" fill="none" stroke="#abcfff" stroke-width="10" stroke-linecap="none" />
<path d="M350,255 A100,100 0 0 1 255,350" fill="none" stroke="#abcfff" stroke-width="10" stroke-linecap="none" />
<path d="M245,350 A100,100 0 0 1 150,255" fill="none" stroke="#abcfff" stroke-width="10" stroke-linecap="none" />

<path d="M100,250 A150,150 0 0 1 250,100" fill="none" stroke="#ff00ff" stroke-width="1" stroke-linecap="round" />

<path d="M270,102 A150,150 0 1 1 102,270" fill="none" stroke="#ffabcd" stroke-width="5" stroke-linecap="round" />

<path d="M76,152 A200,200 0 0 1 424,152" fill="none" stroke="#ff00ff" stroke-width="15" stroke-linecap="round" />
<path d="M145,80 A200,200 0 0 1 355,80" fill="none" stroke="#ffffff" stroke-width="10" stroke-linecap="round" />





<circle cx="76" cy="152" r="5" fill="#ff0000" />
<circle cx="424" cy="152" r="5" fill="#ff0000" />
<circle cx="158" cy="132" r="5" fill="#ff0000" />
<circle cx="342" cy="132" r="5" fill="#ff0000" />
<circle cx="172" cy="186" r="5" fill="#ff0000" />
<circle cx="328" cy="184" r="5" fill="#ff0000" />

<line x1="250" x2="375" y1="500" y2="0" stroke="gray" stroke-width="1
" />
<line x1="250" x2="125" y1="500" y2="0" stroke="gray" stroke-width="1
" />

<line x1="250" x2="0" y1="500" y2="0" stroke="gray" stroke-width="1
" />
<line x1="250" x2="500" y1="500" y2="0" stroke="gray" stroke-width="1
" />

<line x1="0" x2="500" y1="250" y2="250" stroke="gray" stroke-width="1
" />
<line x1="250" x2="250" y1="500" y2="0" stroke="gray" stroke-width="1
" />

<circle cx="250" cy="250" r="200" fill="none" stroke="#000000" stroke-width="1
" />
<circle cx="250" cy="250" r="150" fill="none" stroke="#000000" stroke-width="1
" />
<circle cx="250" cy="250" r="100" fill="none" stroke="#000000" stroke-width="1
" />


</svg>